<?xml version="1.0"?>
<svg width="900" height="900"
     xmlns="http://www.w3.org/2000/svg"
     xmlns:xlink="http://www.w3.org/1999/xlink">
<rect x="50" y="50" width="90" height="90" style="stroke:black; stroke-width:2; fill:white"/>
<text x="95" y="95" style="text-anchor:middle; dominant-baseline:central; font-family:Helvetica; font-size:48px; fill:black">2</text>
<rect x="140" y="50" width="90" height="90" style="stroke:black; stroke-width:2; fill:white"/>
<text x="185" y="95" style="text-anchor:middle; dominant-baseline:central; font-family:Helvetica; font-size:48px; fill:black">4</text>
<rect x="230" y="50" width="90" height="90" style="stroke:black; stroke-width:2; fill:white"/>
<text x="275" y="95" style="text-anchor:middle; dominant-baseline:central; font-family:Helvetica; font-size:48px; fill:black">7</text>
<rect x="320" y="50" width="90" height="90" style="stroke:black; stroke-width:2; fill:white"/>
<text x="365" y="95" style="text-anchor:middle; dominant-baseline:central; font-family:Helvetica; font-size:48px; fill:black">5</text>
<rect x="410" y="50" width="90" height="90" style="stroke:black; stroke-width:2; fill:white"/>
<text x="455" y="95" style="text-anchor:middle; dominant-baseline:central; font-family:Helvetica; font-size:48px; fill:black">8</text>
<rect x="500" y="50" width="90" height="90" style="stroke:black; stroke-width:2; fill:white"/>
<text x="545" y="95" style="text-anchor:middle; dominant-baseline:central; font-family:Helvetica; font-size:48px; fill:black">6</text>
<rect x="590" y="50" width="90" height="90" style="stroke:black; stroke-width:2; fill:white"/>
<text x="635" y="95" style="text-anchor:middle; dominant-baseline:central; font-family:Helvetica; font-size:48px; fill:black">9</text>
<rect x="680" y="50" width="90" height="90" style="stroke:black; stroke-width:2; fill:white"/>
<text x="725" y="95" style="text-anchor:middle; dominant-baseline:central; font-family:Helvetica; font-size:48px; fill:black">1</text>
<rect x="770" y="50" width="90" height="90" style="stroke:black; stroke-width:2; fill:white"/>
<text x="815" y="95" style="text-anchor:middle; dominant-baseline:central; font-family:Helvetica; font-size:48px; fill:black">3</text>
<rect x="50" y="140" width="90" height="90" style="stroke:black; stroke-width:2; fill:white"/>
<text x="95" y="185" style="text-anchor:middle; dominant-baseline:central; font-family:Helvetica; font-size:48px; fill:black">1</text>
<rect x="140" y="140" width="90" height="90" style="stroke:black; stroke-width:2; fill:white"/>
<text x="185" y="185" style="text-anchor:middle; dominant-baseline:central; font-family:Helvetica; font-size:48px; fill:black">9</text>
<rect x="230" y="140" width="90" height="90" style="stroke:black; stroke-width:2; fill:white"/>
<text x="275" y="185" style="text-anchor:middle; dominant-baseline:central; font-family:Helvetica; font-size:48px; fill:black">5</text>
<rect x="320" y="140" width="90" height="90" style="stroke:black; stroke-width:2; fill:white"/>
<text x="365" y="185" style="text-anchor:middle; dominant-baseline:central; font-family:Helvetica; font-size:48px; fill:black">3</text>
<rect x="410" y="140" width="90" height="90" style="stroke:black; stroke-width:2; fill:white"/>
<text x="455" y="185" style="text-anchor:middle; dominant-baseline:central; font-family:Helvetica; font-size:48px; fill:black">2</text>
<rect x="500" y="140" width="90" height="90" style="stroke:black; stroke-width:2; fill:white"/>
<text x="545" y="185" style="text-anchor:middle; dominant-baseline:central; font-family:Helvetica; font-size:48px; fill:black">4</text>
<rect x="590" y="140" width="90" height="90" style="stroke:black; stroke-width:2; fill:white"/>
<text x="635" y="185" style="text-anchor:middle; dominant-baseline:central; font-family:Helvetica; font-size:48px; fill:black">6</text>
<rect x="680" y="140" width="90" height="90" style="stroke:black; stroke-width:2; fill:white"/>
<text x="725" y="185" style="text-anchor:middle; dominant-baseline:central; font-family:Helvetica; font-size:48px; fill:black">8</text>
<rect x="770" y="140" width="90" height="90" style="stroke:black; stroke-width:2; fill:white"/>
<text x="815" y="185" style="text-anchor:middle; dominant-baseline:central; font-family:Helvetica; font-size:48px; fill:black">7</text>
<rect x="50" y="230" width="90" height="90" style="stroke:black; stroke-width:2; fill:white"/>
<text x="95" y="275" style="text-anchor:middle; dominant-baseline:central; font-family:Helvetica; font-size:48px; fill:black">8</text>
<rect x="140" y="230" width="90" height="90" style="stroke:black; stroke-width:2; fill:white"/>
<text x="185" y="275" style="text-anchor:middle; dominant-baseline:central; font-family:Helvetica; font-size:48px; fill:black">6</text>
<rect x="230" y="230" width="90" height="90" style="stroke:black; stroke-width:2; fill:white"/>
<text x="275" y="275" style="text-anchor:middle; dominant-baseline:central; font-family:Helvetica; font-size:48px; fill:black">3</text>
<rect x="320" y="230" width="90" height="90" style="stroke:black; stroke-width:2; fill:white"/>
<text x="365" y="275" style="text-anchor:middle; dominant-baseline:central; font-family:Helvetica; font-size:48px; fill:black">1</text>
<rect x="410" y="230" width="90" height="90" style="stroke:black; stroke-width:2; fill:white"/>
<text x="455" y="275" style="text-anchor:middle; dominant-baseline:central; font-family:Helvetica; font-size:48px; fill:black">7</text>
<rect x="500" y="230" width="90" height="90" style="stroke:black; stroke-width:2; fill:white"/>
<text x="545" y="275" style="text-anchor:middle; dominant-baseline:central; font-family:Helvetica; font-size:48px; fill:black">9</text>
<rect x="590" y="230" width="90" height="90" style="stroke:black; stroke-width:2; fill:white"/>
<text x="635" y="275" style="text-anchor:middle; dominant-baseline:central; font-family:Helvetica; font-size:48px; fill:black">2</text>
<rect x="680" y="230" width="90" height="90" style="stroke:black; stroke-width:2; fill:white"/>
<text x="725" y="275" style="text-anchor:middle; dominant-baseline:central; font-family:Helvetica; font-size:48px; fill:black">5</text>
<rect x="770" y="230" width="90" height="90" style="stroke:black; stroke-width:2; fill:white"/>
<text x="815" y="275" style="text-anchor:middle; dominant-baseline:central; font-family:Helvetica; font-size:48px; fill:black">4</text>
<rect x="50" y="320" width="90" height="90" style="stroke:black; stroke-width:2; fill:white"/>
<text x="95" y="365" style="text-anchor:middle; dominant-baseline:central; font-family:Helvetica; font-size:48px; fill:black">7</text>
<rect x="140" y="320" width="90" height="90" style="stroke:black; stroke-width:2; fill:white"/>
<text x="185" y="365" style="text-anchor:middle; dominant-baseline:central; font-family:Helvetica; font-size:48px; fill:black">8</text>
<rect x="230" y="320" width="90" height="90" style="stroke:black; stroke-width:2; fill:white"/>
<text x="275" y="365" style="text-anchor:middle; dominant-baseline:central; font-family:Helvetica; font-size:48px; fill:black">1</text>
<rect x="320" y="320" width="90" height="90" style="stroke:black; stroke-width:2; fill:white"/>
<text x="365" y="365" style="text-anchor:middle; dominant-baseline:central; font-family:Helvetica; font-size:48px; fill:black">9</text>
<rect x="410" y="320" width="90" height="90" style="stroke:black; stroke-width:2; fill:white"/>
<text x="455" y="365" style="text-anchor:middle; dominant-baseline:central; font-family:Helvetica; font-size:48px; fill:black">6</text>
<rect x="500" y="320" width="90" height="90" style="stroke:black; stroke-width:2; fill:white"/>
<text x="545" y="365" style="text-anchor:middle; dominant-baseline:central; font-family:Helvetica; font-size:48px; fill:black">2</text>
<rect x="590" y="320" width="90" height="90" style="stroke:black; stroke-width:2; fill:white"/>
<text x="635" y="365" style="text-anchor:middle; dominant-baseline:central; font-family:Helvetica; font-size:48px; fill:black">3</text>
<rect x="680" y="320" width="90" height="90" style="stroke:black; stroke-width:2; fill:white"/>
<text x="725" y="365" style="text-anchor:middle; dominant-baseline:central; font-family:Helvetica; font-size:48px; fill:black">4</text>
<rect x="770" y="320" width="90" height="90" style="stroke:black; stroke-width:2; fill:white"/>
<text x="815" y="365" style="text-anchor:middle; dominant-baseline:central; font-family:Helvetica; font-size:48px; fill:black">5</text>
<rect x="50" y="410" width="90" height="90" style="stroke:black; stroke-width:2; fill:white"/>
<text x="95" y="455" style="text-anchor:middle; dominant-baseline:central; font-family:Helvetica; font-size:48px; fill:black">4</text>
<rect x="140" y="410" width="90" height="90" style="stroke:black; stroke-width:2; fill:white"/>
<text x="185" y="455" style="text-anchor:middle; dominant-baseline:central; font-family:Helvetica; font-size:48px; fill:black">3</text>
<rect x="230" y="410" width="90" height="90" style="stroke:black; stroke-width:2; fill:white"/>
<text x="275" y="455" style="text-anchor:middle; dominant-baseline:central; font-family:Helvetica; font-size:48px; fill:black">9</text>
<rect x="320" y="410" width="90" height="90" style="stroke:black; stroke-width:2; fill:white"/>
<text x="365" y="455" style="text-anchor:middle; dominant-baseline:central; font-family:Helvetica; font-size:48px; fill:black">8</text>
<rect x="410" y="410" width="90" height="90" style="stroke:black; stroke-width:2; fill:white"/>
<text x="455" y="455" style="text-anchor:middle; dominant-baseline:central; font-family:Helvetica; font-size:48px; fill:black">1</text>
<rect x="500" y="410" width="90" height="90" style="stroke:black; stroke-width:2; fill:white"/>
<text x="545" y="455" style="text-anchor:middle; dominant-baseline:central; font-family:Helvetica; font-size:48px; fill:black">5</text>
<rect x="590" y="410" width="90" height="90" style="stroke:black; stroke-width:2; fill:white"/>
<text x="635" y="455" style="text-anchor:middle; dominant-baseline:central; font-family:Helvetica; font-size:48px; fill:black">7</text>
<rect x="680" y="410" width="90" height="90" style="stroke:black; stroke-width:2; fill:white"/>
<text x="725" y="455" style="text-anchor:middle; dominant-baseline:central; font-family:Helvetica; font-size:48px; fill:black">2</text>
<rect x="770" y="410" width="90" height="90" style="stroke:black; stroke-width:2; fill:white"/>
<text x="815" y="455" style="text-anchor:middle; dominant-baseline:central; font-family:Helvetica; font-size:48px; fill:black">6</text>
<rect x="50" y="500" width="90" height="90" style="stroke:black; stroke-width:2; fill:white"/>
<text x="95" y="545" style="text-anchor:middle; dominant-baseline:central; font-family:Helvetica; font-size:48px; fill:black">5</text>
<rect x="140" y="500" width="90" height="90" style="stroke:black; stroke-width:2; fill:white"/>
<text x="185" y="545" style="text-anchor:middle; dominant-baseline:central; font-family:Helvetica; font-size:48px; fill:black">2</text>
<rect x="230" y="500" width="90" height="90" style="stroke:black; stroke-width:2; fill:white"/>
<text x="275" y="545" style="text-anchor:middle; dominant-baseline:central; font-family:Helvetica; font-size:48px; fill:black">6</text>
<rect x="320" y="500" width="90" height="90" style="stroke:black; stroke-width:2; fill:white"/>
<text x="365" y="545" style="text-anchor:middle; dominant-baseline:central; font-family:Helvetica; font-size:48px; fill:black">4</text>
<rect x="410" y="500" width="90" height="90" style="stroke:black; stroke-width:2; fill:white"/>
<text x="455" y="545" style="text-anchor:middle; dominant-baseline:central; font-family:Helvetica; font-size:48px; fill:black">3</text>
<rect x="500" y="500" width="90" height="90" style="stroke:black; stroke-width:2; fill:white"/>
<text x="545" y="545" style="text-anchor:middle; dominant-baseline:central; font-family:Helvetica; font-size:48px; fill:black">7</text>
<rect x="590" y="500" width="90" height="90" style="stroke:black; stroke-width:2; fill:white"/>
<text x="635" y="545" style="text-anchor:middle; dominant-baseline:central; font-family:Helvetica; font-size:48px; fill:black">8</text>
<rect x="680" y="500" width="90" height="90" style="stroke:black; stroke-width:2; fill:white"/>
<text x="725" y="545" style="text-anchor:middle; dominant-baseline:central; font-family:Helvetica; font-size:48px; fill:black">9</text>
<rect x="770" y="500" width="90" height="90" style="stroke:black; stroke-width:2; fill:white"/>
<text x="815" y="545" style="text-anchor:middle; dominant-baseline:central; font-family:Helvetica; font-size:48px; fill:black">1</text>
<rect x="50" y="590" width="90" height="90" style="stroke:black; stroke-width:2; fill:white"/>
<text x="95" y="635" style="text-anchor:middle; dominant-baseline:central; font-family:Helvetica; font-size:48px; fill:black">9</text>
<rect x="140" y="590" width="90" height="90" style="stroke:black; stroke-width:2; fill:white"/>
<text x="185" y="635" style="text-anchor:middle; dominant-baseline:central; font-family:Helvetica; font-size:48px; fill:black">5</text>
<rect x="230" y="590" width="90" height="90" style="stroke:black; stroke-width:2; fill:white"/>
<text x="275" y="635" style="text-anchor:middle; dominant-baseline:central; font-family:Helvetica; font-size:48px; fill:black">8</text>
<rect x="320" y="590" width="90" height="90" style="stroke:black; stroke-width:2; fill:white"/>
<text x="365" y="635" style="text-anchor:middle; dominant-baseline:central; font-family:Helvetica; font-size:48px; fill:black">7</text>
<rect x="410" y="590" width="90" height="90" style="stroke:black; stroke-width:2; fill:white"/>
<text x="455" y="635" style="text-anchor:middle; dominant-baseline:central; font-family:Helvetica; font-size:48px; fill:black">4</text>
<rect x="500" y="590" width="90" height="90" style="stroke:black; stroke-width:2; fill:white"/>
<text x="545" y="635" style="text-anchor:middle; dominant-baseline:central; font-family:Helvetica; font-size:48px; fill:black">3</text>
<rect x="590" y="590" width="90" height="90" style="stroke:black; stroke-width:2; fill:white"/>
<text x="635" y="635" style="text-anchor:middle; dominant-baseline:central; font-family:Helvetica; font-size:48px; fill:black">1</text>
<rect x="680" y="590" width="90" height="90" style="stroke:black; stroke-width:2; fill:white"/>
<text x="725" y="635" style="text-anchor:middle; dominant-baseline:central; font-family:Helvetica; font-size:48px; fill:black">6</text>
<rect x="770" y="590" width="90" height="90" style="stroke:black; stroke-width:2; fill:white"/>
<text x="815" y="635" style="text-anchor:middle; dominant-baseline:central; font-family:Helvetica; font-size:48px; fill:black">2</text>
<rect x="50" y="680" width="90" height="90" style="stroke:black; stroke-width:2; fill:white"/>
<text x="95" y="725" style="text-anchor:middle; dominant-baseline:central; font-family:Helvetica; font-size:48px; fill:black">3</text>
<rect x="140" y="680" width="90" height="90" style="stroke:black; stroke-width:2; fill:white"/>
<text x="185" y="725" style="text-anchor:middle; dominant-baseline:central; font-family:Helvetica; font-size:48px; fill:black">1</text>
<rect x="230" y="680" width="90" height="90" style="stroke:black; stroke-width:2; fill:white"/>
<text x="275" y="725" style="text-anchor:middle; dominant-baseline:central; font-family:Helvetica; font-size:48px; fill:black">2</text>
<rect x="320" y="680" width="90" height="90" style="stroke:black; stroke-width:2; fill:white"/>
<text x="365" y="725" style="text-anchor:middle; dominant-baseline:central; font-family:Helvetica; font-size:48px; fill:black">6</text>
<rect x="410" y="680" width="90" height="90" style="stroke:black; stroke-width:2; fill:white"/>
<text x="455" y="725" style="text-anchor:middle; dominant-baseline:central; font-family:Helvetica; font-size:48px; fill:black">5</text>
<rect x="500" y="680" width="90" height="90" style="stroke:black; stroke-width:2; fill:white"/>
<text x="545" y="725" style="text-anchor:middle; dominant-baseline:central; font-family:Helvetica; font-size:48px; fill:black">8</text>
<rect x="590" y="680" width="90" height="90" style="stroke:black; stroke-width:2; fill:white"/>
<text x="635" y="725" style="text-anchor:middle; dominant-baseline:central; font-family:Helvetica; font-size:48px; fill:black">4</text>
<rect x="680" y="680" width="90" height="90" style="stroke:black; stroke-width:2; fill:white"/>
<text x="725" y="725" style="text-anchor:middle; dominant-baseline:central; font-family:Helvetica; font-size:48px; fill:black">7</text>
<rect x="770" y="680" width="90" height="90" style="stroke:black; stroke-width:2; fill:white"/>
<text x="815" y="725" style="text-anchor:middle; dominant-baseline:central; font-family:Helvetica; font-size:48px; fill:black">9</text>
<rect x="50" y="770" width="90" height="90" style="stroke:black; stroke-width:2; fill:white"/>
<text x="95" y="815" style="text-anchor:middle; dominant-baseline:central; font-family:Helvetica; font-size:48px; fill:black">6</text>
<rect x="140" y="770" width="90" height="90" style="stroke:black; stroke-width:2; fill:white"/>
<text x="185" y="815" style="text-anchor:middle; dominant-baseline:central; font-family:Helvetica; font-size:48px; fill:black">7</text>
<rect x="230" y="770" width="90" height="90" style="stroke:black; stroke-width:2; fill:white"/>
<text x="275" y="815" style="text-anchor:middle; dominant-baseline:central; font-family:Helvetica; font-size:48px; fill:black">4</text>
<rect x="320" y="770" width="90" height="90" style="stroke:black; stroke-width:2; fill:white"/>
<text x="365" y="815" style="text-anchor:middle; dominant-baseline:central; font-family:Helvetica; font-size:48px; fill:black">2</text>
<rect x="410" y="770" width="90" height="90" style="stroke:black; stroke-width:2; fill:white"/>
<text x="455" y="815" style="text-anchor:middle; dominant-baseline:central; font-family:Helvetica; font-size:48px; fill:black">9</text>
<rect x="500" y="770" width="90" height="90" style="stroke:black; stroke-width:2; fill:white"/>
<text x="545" y="815" style="text-anchor:middle; dominant-baseline:central; font-family:Helvetica; font-size:48px; fill:black">1</text>
<rect x="590" y="770" width="90" height="90" style="stroke:black; stroke-width:2; fill:white"/>
<text x="635" y="815" style="text-anchor:middle; dominant-baseline:central; font-family:Helvetica; font-size:48px; fill:black">5</text>
<rect x="680" y="770" width="90" height="90" style="stroke:black; stroke-width:2; fill:white"/>
<text x="725" y="815" style="text-anchor:middle; dominant-baseline:central; font-family:Helvetica; font-size:48px; fill:black">3</text>
<rect x="770" y="770" width="90" height="90" style="stroke:black; stroke-width:2; fill:white"/>
<text x="815" y="815" style="text-anchor:middle; dominant-baseline:central; font-family:Helvetica; font-size:48px; fill:black">8</text>
<rect x="50" y="50" width="270" height="270" style="stroke:black; stroke-width:5; fill-opacity:0.0"/>
<rect x="320" y="50" width="270" height="270" style="stroke:black; stroke-width:5; fill-opacity:0.0"/>
<rect x="590" y="50" width="270" height="270" style="stroke:black; stroke-width:5; fill-opacity:0.0"/>
<rect x="50" y="320" width="270" height="270" style="stroke:black; stroke-width:5; fill-opacity:0.0"/>
<rect x="320" y="320" width="270" height="270" style="stroke:black; stroke-width:5; fill-opacity:0.0"/>
<rect x="590" y="320" width="270" height="270" style="stroke:black; stroke-width:5; fill-opacity:0.0"/>
<rect x="50" y="590" width="270" height="270" style="stroke:black; stroke-width:5; fill-opacity:0.0"/>
<rect x="320" y="590" width="270" height="270" style="stroke:black; stroke-width:5; fill-opacity:0.0"/>
<rect x="590" y="590" width="270" height="270" style="stroke:black; stroke-width:5; fill-opacity:0.0"/>
</svg>
